:version 1.10
:name ASF
:units
  mass 1
  length 1
  angle deg
:documentation
  ASF file generated by Kaydara
:root
  axis xyz
  order  tx ty tz rx ry rz
  position 0 0 0
  orientation 0 0 0
:bonedata
  begin
    id 1
    name lfemurDummy
    direction 0.61522 -0.761478 0.204097
    length 5.68318
    axis 0 -0 0 xyz
  end
  begin
    id 2
    name lfemur
    direction 0.34202 -0.939693 -5.84747e-008
    length 16.9147
    axis 0 -0 20 xyz
    dof rx ry rz
    limits( -inf , inf )
( -inf , inf )
( -inf , inf )

  end
  begin
    id 3
    name ltibia
    direction 0.34202 -0.939693 1.20839e-009
    length 18.0532
    axis 0 -0 20 xyz
    dof rz ry rx
    limits( -inf , inf )
( -inf , inf )
( -inf , inf )

  end
  begin
    id 4
    name lfoot
    direction 0.0841971 -0.23133 0.969225
    length 5.23822
    axis -90 7.62852e-016 20 xyz
    dof ry rx rz
    limits( -inf , inf )
( -inf , inf )
( -inf , inf )

  end
  begin
    id 5
    name ltoes
    direction 0 0 0
    length 0
    axis 0 0 0 xyz
    dof rz ry rx
    limits( -inf , inf )
( -inf , inf )
( -inf , inf )

  end
  begin
    id 6
    name rfemurDummy
    direction -0.625247 -0.75382 0.202044
    length 5.74091
    axis 0 -0 0 xyz
  end
  begin
    id 7
    name rfemur
    direction -0.34202 -0.939693 -1.47013e-008
    length 16.4922
    axis 0 -0 -20 xyz
    dof rx ry rz
    limits( -inf , inf )
( -inf , inf )
( -inf , inf )

  end
  begin
    id 8
    name rtibia
    direction -0.34202 -0.939693 -7.74345e-010
    length 18.2421
    axis 0 -0 -20 xyz
    dof rz ry rx
    limits( -inf , inf )
( -inf , inf )
( -inf , inf )

  end
  begin
    id 9
    name rfoot
    direction -0.124331 -0.341598 0.931586
    length 5.45787
    axis -90 -7.62852e-016 -20 xyz
    dof ry rx rz
    limits( -inf , inf )
( -inf , inf )
( -inf , inf )

  end
  begin
    id 10
    name rtoes
    direction 0 0 0
    length 0
    axis 0 0 0 xyz
    dof rz ry rx
    limits( -inf , inf )
( -inf , inf )
( -inf , inf )

  end
  begin
    id 11
    name lowerbackDummy
    direction 0 0 0
    length 0
    axis 0 -0 0 xyz
  end
  begin
    id 12
    name lowerback
    direction -0.0218484 0.994884 -0.0986304
    length 4.45607
    axis 0 -0 0 xyz
    dof rx ry rz
    limits( -inf , inf )
( -inf , inf )
( -inf , inf )

  end
  begin
    id 13
    name upperback
    direction -0.00973057 0.999717 -0.0217111
    length 4.47449
    axis 0 -0 0 xyz
    dof rx ry rz
    limits( -inf , inf )
( -inf , inf )
( -inf , inf )

  end
  begin
    id 14
    name thorax
    direction -0.000928171 0.999699 0.0245198
    length 4.50973
    axis 0 -0 0 xyz
    dof rx ry rz
    limits( -inf , inf )
( -inf , inf )
( -inf , inf )

  end
  begin
    id 15
    name rclavicle
    direction -0.9009 0.425937 -0.0834055
    length 7.28587
    axis 0 -0 0 xyz
    dof rx ry rz
    limits( -inf , inf )
( -inf , inf )
( -inf , inf )

  end
  begin
    id 16
    name rhumerus
    direction -1 -2.23604e-007 -1.42637e-007
    length 13.5704
    axis 180 30 90 xyz
    dof rx ry rz
    limits( -inf , inf )
( -inf , inf )
( -inf , inf )

  end
  begin
    id 17
    name rradius
    direction -1 5.68281e-008 -4.4952e-007
    length 8.06782
    axis 180 30 90 xyz
    dof rz ry rx
    limits( -inf , inf )
( -inf , inf )
( -inf , inf )

  end
  begin
    id 18
    name rwrist
    direction -1 1.51393e-007 1.38143e-007
    length 4.03391
    axis -90 -90 0 xyz
    dof rz rx ry
    limits( -inf , inf )
( -inf , inf )
( -inf , inf )

  end
  begin
    id 19
    name rthumb
    direction 0 0 0
    length 0
    axis 0 0 0 xyz
    dof ry rx rz
    limits( -inf , inf )
( -inf , inf )
( -inf , inf )

  end
  begin
    id 20
    name rhand
    direction -1 -3.34077e-007 -5.59631e-007
    length 1.29744
    axis -90 -90 0 xyz
    dof ry rx rz
    limits( -inf , inf )
( -inf , inf )
( -inf , inf )

  end
  begin
    id 21
    name rfingers
    direction 0 0 0
    length 0
    axis 0 0 0 xyz
    dof rz ry rx
    limits( -inf , inf )
( -inf , inf )
( -inf , inf )

  end
  begin
    id 22
    name lclavicle
    direction 0.940017 0.332249 -0.0773232
    length 8.29589
    axis 0 -0 0 xyz
    dof rx ry rz
    limits( -inf , inf )
( -inf , inf )
( -inf , inf )

  end
  begin
    id 23
    name lhumerus
    direction 1 7.41158e-008 -1.44768e-008
    length 12.0042
    axis 180 -30 -90 xyz
    dof rx ry rz
    limits( -inf , inf )
( -inf , inf )
( -inf , inf )

  end
  begin
    id 24
    name lradius
    direction 1 -1.32972e-007 3.10821e-007
    length 8.1902
    axis 180 -30 -90 xyz
    dof rz ry rx
    limits( -inf , inf )
( -inf , inf )
( -inf , inf )

  end
  begin
    id 25
    name lwrist
    direction 1 3.08957e-007 4.01394e-007
    length 4.09509
    axis -90 90 0 xyz
    dof rz rx ry
    limits( -inf , inf )
( -inf , inf )
( -inf , inf )

  end
  begin
    id 26
    name lthumb
    direction 0 0 0
    length 0
    axis 0 0 0 xyz
    dof ry rx rz
    limits( -inf , inf )
( -inf , inf )
( -inf , inf )

  end
  begin
    id 27
    name lhand
    direction 1 -1.64125e-007 -6.99514e-007
    length 1.37229
    axis -90 90 0 xyz
    dof ry rx rz
    limits( -inf , inf )
( -inf , inf )
( -inf , inf )

  end
  begin
    id 28
    name lfingers
    direction 0 0 0
    length 0
    axis 0 0 0 xyz
    dof rz ry rx
    limits( -inf , inf )
( -inf , inf )
( -inf , inf )

  end
  begin
    id 29
    name lowerneck
    direction -0.030798 0.998024 0.0547665
    length 3.93918
    axis 0 -0 0 xyz
    dof rx ry rz
    limits( -inf , inf )
( -inf , inf )
( -inf , inf )

  end
  begin
    id 30
    name upperneck
    direction 0.0531588 0.996611 -0.0627736
    length 3.95491
    axis 0 -0 0 xyz
    dof rx ry rz
    limits( -inf , inf )
( -inf , inf )
( -inf , inf )

  end
  begin
    id 31
    name head
    direction 0 0 0
    length 0
    axis 0 0 0 xyz
    dof rx ry rz
    limits( -inf , inf )
( -inf , inf )
( -inf , inf )

  end
:hierarchy
  begin
    root lfemurDummy rfemurDummy lowerbackDummy
    lfemurDummy lfemur
    lfemur ltibia
    ltibia lfoot
    lfoot ltoes
    rfemurDummy rfemur
    rfemur rtibia
    rtibia rfoot
    rfoot rtoes
    lowerbackDummy lowerback
    lowerback upperback
    upperback thorax
    thorax rclavicle lclavicle lowerneck
    rclavicle rhumerus
    rhumerus rradius
    rradius rwrist
    rwrist rthumb rhand
    rhand rfingers
    lclavicle lhumerus
    lhumerus lradius
    lradius lwrist
    lwrist lthumb lhand
    lhand lfingers
    lowerneck upperneck
    upperneck head
  end

:SAMPLES-PER-SECOND 30
:FULLY-SPECIFIED
:DEGREES
71
root  10.82902217 37.97777732 -3.339911258 -171.5609741 -73.17890167 169.4329834
lowerback  13.51329994 3.329030037 -0.4218640029
upperback  5.06719017 4.146430016 2.639230013
thorax  -2.45795989 1.918319941 2.35435009
lowerneck  -4.593979836 6.970610142 2.60661006
upperneck  12.73289967 8.860480309 1.251600027
head  4.634419918 4.490439892 0.4361749887
lclavicle  0 -9.442270133e-015 7.951389973e-016
lhumerus  -37.24100113 0.1390219927 80.63110352
lradius  2.074546072e-031 -2.857464371e-031 125.9800034
lwrist  -1.412450015e-030 -0 17.04319954
lhand  -1.496451383e-031 -27.76390076 20.11240005
lfingers  90 7.125020027 -90
lthumb  89.89689403 5.08795885 91.16245106
rclavicle  0 -9.442270133e-015 7.951389973e-016
rhumerus  -1.279960036 35.40859985 -78.31400299
rradius  -9.04215252e-032 3.413391102e-031 104.836998
rwrist  1.412450015e-030 -1.765562519e-031 -9.501130104
rhand  -7.920061211e-032 -33.2840004 9.303460121
rfingers  -90 -7.125020027 -90
rthumb  -92.93752616 -24.25625642 -97.11982154
rfemur  -7.675970078 15.44130039 -0.08618660271
rtibia  -0 0 47.49029922
rfoot  -0 -25.27109909 -8.393520355
rtoes  5.373923086 19.29304026 -105.8922705
lfemur  -27.79430008 -7.373960018 -2.47758007
ltibia  -0 0 47.7845993
lfoot  4.46848842e-032 -8.964489937 4.830550194
ltoes  -4.250644065 -19.5611806 -102.515957
72
root  10.65511103 37.90622321 -3.185133296 -170.2969971 -71.98120117 167.4450073
lowerback  14.19219971 3.281080008 -0.08998130262
upperback  4.813089848 4.10901022 1.539340019
thorax  -2.983160019 1.914540052 0.9862790108
lowerneck  -4.49905014 7.201000214 3.433079958
upperneck  13.38500023 8.974539757 1.906340003
head  4.831110001 4.614600182 0.524559021
lclavicle  0 -9.442270133e-015 7.951389973e-016
lhumerus  -36.33369827 -0.2063930035 78.29519653
lradius  2.112907037e-031 -2.829216833e-031 126.7529984
lwrist  -7.062250077e-031 8.827812596e-032 17.40379906
lhand  -1.496451383e-031 -27.76390076 20.11240005
lfingers  90 7.125020027 -90
lthumb  89.89689403 5.08795885 91.16245106
rclavicle  0 -9.442270133e-015 7.951389973e-016
rhumerus  -0.4143860042 35.43159866 -79.83280182
rradius  -8.743937436e-032 3.421151797e-031 104.336998
rwrist  7.062250077e-031 1.765562519e-031 -9.529359818
rhand  -7.920061211e-032 -33.2840004 9.303460121
rfingers  -90 -7.125020027 -90
rthumb  -92.93752616 -24.25625642 -97.11982154
rfemur  -7.96668005 15.77040005 -1.542289972
rtibia  -0 0 48.36109924
rfoot  -0 -24.46430016 -7.624979973
rtoes  5.373923086 19.29304026 -105.8922705
lfemur  -26.2208004 -7.120359898 -3.847899914
ltibia  -0 0 47.09719849
lfoot  8.973203367e-032 -10.3281002 6.561510086
ltoes  -4.250644065 -19.5611806 -102.515957
73
root  10.47657794 37.86288885 -3.012888826 -170.9749756 -70.91339874 167.4299927
lowerback  14.2883997 3.436059952 -0.3709799945
upperback  4.917230129 4.267720222 1.649770021
thorax  -2.957839966 1.98672998 1.230129957
lowerneck  -4.613840103 7.272729874 3.078629971
upperneck  13.96370029 9.032649994 2.257989883
head  4.995729923 4.64549017 0.7072399855
lclavicle  0 -9.442270133e-015 7.951389973e-016
lhumerus  -35.08710098 0.04817479849 77.56610107
lradius  2.14633528e-031 -2.803941673e-031 127.4329987
lwrist  -7.062250077e-031 -0 17.64599991
lhand  -1.496451383e-031 -27.76390076 20.11240005
lfingers  90 7.125020027 -90
lthumb  89.89689403 5.08795885 91.16245106
rclavicle  0 -9.442270133e-015 7.951389973e-016
rhumerus  0.9686049819 36.04439926 -79.41349792
rradius  -8.675254228e-032 3.422899893e-031 104.2220001
rwrist  1.412450015e-030 -0 -9.888699532
rhand  -7.920061211e-032 -33.2840004 9.303460121
rfingers  -90 -7.125020027 -90
rthumb  -92.93752616 -24.25625642 -97.11982154
rfemur  -8.109780312 16.27709961 -2.258330107
rtibia  -0 0 49.04059982
rfoot  -0 -23.54299927 -6.757050037
rtoes  5.373923086 19.29304026 -105.8922705
lfemur  -24.60470009 -6.299320221 -4.692619801
ltibia  -0 0 46.91049957
lfoot  -0 -11.52630043 7.703100204
ltoes  -4.250644065 -19.5611806 -102.515957
74
root  10.28899996 37.84822179 -2.780711182 -173.335022 -70.29170227 169.5319824
lowerback  14.2361002 3.319689989 0.4690319896
upperback  4.813099861 4.240089893 1.873029947
thorax  -2.99394989 1.975110054 0.9975280166
lowerneck  -4.646359921 7.338019848 2.641979933
upperneck  14.50039959 9.06608963 2.782170057
head  5.120960236 4.66918993 0.949549973
lclavicle  0 -9.442270133e-015 7.951389973e-016
lhumerus  -33.92129898 0.2810850143 76.70539856
lradius  2.180382628e-031 -2.777548494e-031 128.1320038
lwrist  -7.062250077e-031 1.765562519e-031 17.90449905
lhand  -1.496451383e-031 -27.76390076 20.11240005
lfingers  90 7.125020027 -90
lthumb  89.89689403 5.08795885 91.16245106
rclavicle  0 -9.442270133e-015 7.951389973e-016
rhumerus  1.799360037 36.46450043 -79.53990173
rradius  -8.77020665e-032 3.420479322e-031 104.3809967
rwrist  7.062250077e-031 -0 -10.08889961
rhand  -7.920061211e-032 -33.2840004 9.303460121
rfingers  -90 -7.125020027 -90
rthumb  -92.93752616 -24.25625642 -97.11982154
rfemur  -8.402979851 16.46430016 -2.151230097
rtibia  -0 0 49.56090164
rfoot  -4.775123546e-032 -22.42880058 -6.129509926
rtoes  5.373923086 19.29304026 -105.8922705
lfemur  -23.61009979 -5.296040058 -4.735750198
ltibia  -0 0 47.03179932
lfoot  -0 -12.18840027 8.712860107
ltoes  -4.250644065 -19.5611806 -102.515957
